<svg id="SvgjsSvg1648" width="1707" height="807" xmlns="http://www.w3.org/2000/svg" version="1.1" xmlns:xlink="http://www.w3.org/1999/xlink" xmlns:svgjs="http://svgjs.com/svgjs"><defs id="SvgjsDefs1649"><marker id="SvgjsMarker1684" markerWidth="14" markerHeight="10" refX="10" refY="5" viewBox="0 0 14 10" orient="auto" markerUnits="userSpaceOnUse" stroke-dasharray="0,0"><path id="SvgjsPath1685" d="M0,0 L14,5 L0,10 L0,0" fill="#323232" stroke="#323232" stroke-width="1"></path></marker><marker id="SvgjsMarker1704" markerWidth="14" markerHeight="10" refX="10" refY="5" viewBox="0 0 14 10" orient="auto" markerUnits="userSpaceOnUse" stroke-dasharray="0,0"><path id="SvgjsPath1705" d="M0,0 L14,5 L0,10 L0,0" fill="#323232" stroke="#323232" stroke-width="1"></path></marker><marker id="SvgjsMarker1724" markerWidth="14" markerHeight="10" refX="10" refY="5" viewBox="0 0 14 10" orient="auto" markerUnits="userSpaceOnUse" stroke-dasharray="0,0"><path id="SvgjsPath1725" d="M0,0 L14,5 L0,10 L0,0" fill="#323232" stroke="#323232" stroke-width="1"></path></marker><marker id="SvgjsMarker1734" markerWidth="14" markerHeight="10" refX="10" refY="5" viewBox="0 0 14 10" orient="auto" markerUnits="userSpaceOnUse" stroke-dasharray="0,0"><path id="SvgjsPath1735" d="M0,0 L14,5 L0,10 L0,0" fill="#323232" stroke="#323232" stroke-width="1"></path></marker><marker id="SvgjsMarker1770" markerWidth="14" markerHeight="10" refX="10" refY="5" viewBox="0 0 14 10" orient="auto" markerUnits="userSpaceOnUse" stroke-dasharray="0,0"><path id="SvgjsPath1771" d="M0,0 L14,5 L0,10 L0,0" fill="#323232" stroke="#323232" stroke-width="1"></path></marker><marker id="SvgjsMarker1827" markerWidth="14" markerHeight="10" refX="10" refY="5" viewBox="0 0 14 10" orient="auto" markerUnits="userSpaceOnUse" stroke-dasharray="0,0"><path id="SvgjsPath1828" d="M0,0 L14,5 L0,10 L0,0" fill="#323232" stroke="#323232" stroke-width="1"></path></marker><marker id="SvgjsMarker1847" markerWidth="14" markerHeight="10" refX="10" refY="5" viewBox="0 0 14 10" orient="auto" markerUnits="userSpaceOnUse" stroke-dasharray="0,0"><path id="SvgjsPath1848" d="M0,0 L14,5 L0,10 L0,0" fill="#323232" stroke="#323232" stroke-width="1"></path></marker><marker id="SvgjsMarker1851" markerWidth="14" markerHeight="10" refX="10" refY="5" viewBox="0 0 14 10" orient="auto" markerUnits="userSpaceOnUse" stroke-dasharray="0,0"><path id="SvgjsPath1852" d="M0,0 L14,5 L0,10 L0,0" fill="#323232" stroke="#323232" stroke-width="1"></path></marker><marker id="SvgjsMarker1859" markerWidth="14" markerHeight="10" refX="10" refY="5" viewBox="0 0 14 10" orient="auto" markerUnits="userSpaceOnUse" stroke-dasharray="0,0"><path id="SvgjsPath1860" d="M0,0 L14,5 L0,10 L0,0" fill="#323232" stroke="#323232" stroke-width="1"></path></marker><marker id="SvgjsMarker1863" markerWidth="14" markerHeight="10" refX="10" refY="5" viewBox="0 0 14 10" orient="auto" markerUnits="userSpaceOnUse" stroke-dasharray="0,0"><path id="SvgjsPath1864" d="M0,0 L14,5 L0,10 L0,0" fill="#323232" stroke="#323232" stroke-width="1"></path></marker><marker id="SvgjsMarker1867" markerWidth="14" markerHeight="10" refX="10" refY="5" viewBox="0 0 14 10" orient="auto" markerUnits="userSpaceOnUse" stroke-dasharray="0,0"><path id="SvgjsPath1868" d="M0,0 L14,5 L0,10 L0,0" fill="#323232" stroke="#323232" stroke-width="1"></path></marker><marker id="SvgjsMarker1871" markerWidth="14" markerHeight="10" refX="10" refY="5" viewBox="0 0 14 10" orient="auto" markerUnits="userSpaceOnUse" stroke-dasharray="0,0"><path id="SvgjsPath1872" d="M0,0 L14,5 L0,10 L0,0" fill="#323232" stroke="#323232" stroke-width="1"></path></marker><marker id="SvgjsMarker1875" markerWidth="14" markerHeight="10" refX="10" refY="5" viewBox="0 0 14 10" orient="auto" markerUnits="userSpaceOnUse" stroke-dasharray="0,0"><path id="SvgjsPath1876" d="M0,0 L14,5 L0,10 L0,0" fill="#323232" stroke="#323232" stroke-width="1"></path></marker><marker id="SvgjsMarker1879" markerWidth="14" markerHeight="10" refX="10" refY="5" viewBox="0 0 14 10" orient="auto" markerUnits="userSpaceOnUse" stroke-dasharray="0,0"><path id="SvgjsPath1880" d="M0,0 L14,5 L0,10 L0,0" fill="#323232" stroke="#323232" stroke-width="1"></path></marker><marker id="SvgjsMarker1883" markerWidth="14" markerHeight="10" refX="10" refY="5" viewBox="0 0 14 10" orient="auto" markerUnits="userSpaceOnUse" stroke-dasharray="0,0"><path id="SvgjsPath1884" d="M0,0 L14,5 L0,10 L0,0" fill="#323232" stroke="#323232" stroke-width="1"></path></marker><marker id="SvgjsMarker1887" markerWidth="14" markerHeight="10" refX="10" refY="5" viewBox="0 0 14 10" orient="auto" markerUnits="userSpaceOnUse" stroke-dasharray="0,0"><path id="SvgjsPath1888" d="M0,0 L14,5 L0,10 L0,0" fill="#323232" stroke="#323232" stroke-width="1"></path></marker><marker id="SvgjsMarker1891" markerWidth="14" markerHeight="10" refX="10" refY="5" viewBox="0 0 14 10" orient="auto" markerUnits="userSpaceOnUse" stroke-dasharray="0,0"><path id="SvgjsPath1892" d="M0,0 L14,5 L0,10 L0,0" fill="#323232" stroke="#323232" stroke-width="1"></path></marker><marker id="SvgjsMarker1895" markerWidth="14" markerHeight="10" refX="10" refY="5" viewBox="0 0 14 10" orient="auto" markerUnits="userSpaceOnUse" stroke-dasharray="0,0"><path id="SvgjsPath1896" d="M0,0 L14,5 L0,10 L0,0" fill="#323232" stroke="#323232" stroke-width="1"></path></marker><marker id="SvgjsMarker1905" markerWidth="14" markerHeight="10" refX="10" refY="5" viewBox="0 0 14 10" orient="auto" markerUnits="userSpaceOnUse" stroke-dasharray="0,0"><path id="SvgjsPath1906" d="M0,0 L14,5 L0,10 L0,0" fill="#323232" stroke="#323232" stroke-width="1"></path></marker><marker id="SvgjsMarker1909" markerWidth="14" markerHeight="10" refX="10" refY="5" viewBox="0 0 14 10" orient="auto" markerUnits="userSpaceOnUse" stroke-dasharray="0,0"><path id="SvgjsPath1910" d="M0,0 L14,5 L0,10 L0,0" fill="#323232" stroke="#323232" stroke-width="1"></path></marker><marker id="SvgjsMarker1913" markerWidth="14" markerHeight="10" refX="10" refY="5" viewBox="0 0 14 10" orient="auto" markerUnits="userSpaceOnUse" stroke-dasharray="0,0"><path id="SvgjsPath1914" d="M0,0 L14,5 L0,10 L0,0" fill="#323232" stroke="#323232" stroke-width="1"></path></marker><marker id="SvgjsMarker1943" markerWidth="14" markerHeight="10" refX="10" refY="5" viewBox="0 0 14 10" orient="auto" markerUnits="userSpaceOnUse" stroke-dasharray="0,0"><path id="SvgjsPath1944" d="M0,0 L14,5 L0,10 L0,0" fill="#323232" stroke="#323232" stroke-width="1"></path></marker><marker id="SvgjsMarker1947" markerWidth="14" markerHeight="10" refX="10" refY="5" viewBox="0 0 14 10" orient="auto" markerUnits="userSpaceOnUse" stroke-dasharray="0,0"><path id="SvgjsPath1948" d="M0,0 L14,5 L0,10 L0,0" fill="#323232" stroke="#323232" stroke-width="1"></path></marker><marker id="SvgjsMarker1951" markerWidth="14" markerHeight="10" refX="10" refY="5" viewBox="0 0 14 10" orient="auto" markerUnits="userSpaceOnUse" stroke-dasharray="0,0"><path id="SvgjsPath1952" d="M0,0 L14,5 L0,10 L0,0" fill="#323232" stroke="#323232" stroke-width="1"></path></marker><marker id="SvgjsMarker1955" markerWidth="14" markerHeight="10" refX="10" refY="5" viewBox="0 0 14 10" orient="auto" markerUnits="userSpaceOnUse" stroke-dasharray="0,0"><path id="SvgjsPath1956" d="M0,0 L14,5 L0,10 L0,0" fill="#323232" stroke="#323232" stroke-width="1"></path></marker><marker id="SvgjsMarker1963" markerWidth="14" markerHeight="10" refX="10" refY="5" viewBox="0 0 14 10" orient="auto" markerUnits="userSpaceOnUse" stroke-dasharray="0,0"><path id="SvgjsPath1964" d="M0,0 L14,5 L0,10 L0,0" fill="#323232" stroke="#323232" stroke-width="1"></path></marker></defs><g id="SvgjsG1650" transform="translate(44,101)"><path id="SvgjsPath1651" d="M 0 0L 1638 0L 1638 681L 0 681Z" stroke="rgba(50,50,50,1)" stroke-width="2" fill-opacity="1" fill="#b2ebf2"></path><g id="SvgjsG1652"><text id="SvgjsText1653" font-family="微软雅黑" text-anchor="end" font-size="28px" width="1618px" fill="#323232" font-weight="700" align="top" lineHeight="125%" anchor="end" family="微软雅黑" size="28px" weight="700" font-style="" opacity="1" y="-5.5" transform="rotate(0)"><tspan id="SvgjsTspan1654" dy="35" x="1628"><tspan id="SvgjsTspan1655" style="text-decoration:;">Cesium初始化项目</tspan></tspan></text></g></g><g id="SvgjsG1656" transform="translate(25,25)"><path id="SvgjsPath1657" d="M 0 0L 749 0L 749 375L 0 375Z" stroke="rgba(50,50,50,1)" stroke-width="2" fill-opacity="1" fill="#81c784"></path><g id="SvgjsG1658"><text id="SvgjsText1659" font-family="微软雅黑" text-anchor="start" font-size="28px" width="729px" fill="#323232" font-weight="700" align="top" lineHeight="125%" anchor="start" family="微软雅黑" size="28px" weight="700" font-style="" opacity="1" y="-5.5" transform="rotate(0)"><tspan id="SvgjsTspan1660" dy="35" x="10"><tspan id="SvgjsTspan1661" style="text-decoration:;">Primitive API </tspan></tspan><tspan id="SvgjsTspan1662" dy="35" x="10"><tspan id="SvgjsTspan1663" style="text-decoration:;">添加图元</tspan></tspan></text></g></g><g id="SvgjsG1664" transform="translate(230.578125,33.359375)"><path id="SvgjsPath1665" d="M 12 0L 283.21875 0C 299.21875 0 299.21875 36 283.21875 36L 12 36C -4 36 -4 0 12 0Z" stroke="rgba(50,50,50,1)" stroke-width="2" fill-opacity="1" fill="#cfcfcf"></path><g id="SvgjsG1666"><text id="SvgjsText1667" font-family="Arial" text-anchor="middle" font-size="13px" width="276px" fill="#323232" font-weight="400" align="middle" lineHeight="125%" anchor="middle" family="Arial" size="13px" weight="400" font-style="" opacity="1" y="8.375" transform="rotate(0)"><tspan id="SvgjsTspan1668" dy="16" x="148"><tspan id="SvgjsTspan1669" style="text-decoration:;">scene.primitives.add(new Cesium Primitive(...)</tspan></tspan></text></g></g><g id="SvgjsG1670" transform="translate(270.1875,202.640625)"><path id="SvgjsPath1671" d="M 0 0L 216 0L 216 44L 0 44Z" stroke="rgba(50,50,50,1)" stroke-width="2" fill-opacity="1" fill="#ffffff"></path><g id="SvgjsG1672"><text id="SvgjsText1673" font-family="微软雅黑" text-anchor="middle" font-size="13px" width="196px" fill="#323232" font-weight="400" align="middle" lineHeight="125%" anchor="middle" family="微软雅黑" size="13px" weight="400" font-style="" opacity="1" y="12.375" transform="rotate(0)"><tspan id="SvgjsTspan1674" dy="16" x="108"><tspan id="SvgjsTspan1675" style="text-decoration:;">new Cesium.Primitive(options)</tspan></tspan></text></g></g><g id="SvgjsG1676" transform="translate(253.6875,274.6953125)"><path id="SvgjsPath1677" d="M 0 0L 249 0L 249 38.5L 0 38.5Z" stroke="rgba(50,50,50,1)" stroke-width="2" fill-opacity="1" fill="#ffffff"></path><g id="SvgjsG1678"><text id="SvgjsText1679" font-family="微软雅黑" text-anchor="middle" font-size="13px" width="229px" fill="#323232" font-weight="400" align="middle" lineHeight="125%" anchor="middle" family="微软雅黑" size="13px" weight="400" font-style="" opacity="1" y="9.625" transform="rotate(0)"><tspan id="SvgjsTspan1680" dy="16" x="124.5"><tspan id="SvgjsTspan1681" style="text-decoration:;">scene.primitives.add(Primitve)</tspan></tspan></text></g></g><g id="SvgjsG1682"><path id="SvgjsPath1683" d="M378.1875 314.1953125L378.1875 334.22265625L378.1875 334.22265625L378.1875 351.65" stroke="#323232" stroke-width="2" fill="none" marker-end="url(#SvgjsMarker1684)"></path><rect id="SvgjsRect1686" width="128" height="16" x="314.1875" y="324.92265625" fill="#ffffff"></rect><text id="SvgjsText1687" font-family="微软雅黑" text-anchor="middle" font-size="13px" width="128px" fill="#323232" font-weight="400" align="top" lineHeight="16px" anchor="middle" family="微软雅黑" size="13px" weight="400" font-style="" opacity="1" y="323.29765625" transform="rotate(0)"><tspan id="SvgjsTspan1688" dy="16" x="378.1875"><tspan id="SvgjsTspan1689" style="text-decoration:;">等待 update 函数执行</tspan></tspan></text></g><g id="SvgjsG1690" transform="translate(250.3125,355.25)"><path id="SvgjsPath1691" d="M 0 0L 255.75 0L 255.75 30L 0 30Z" stroke="rgba(50,50,50,1)" stroke-width="2" fill-opacity="1" fill="#ff0000"></path><g id="SvgjsG1692"><text id="SvgjsText1693" font-family="微软雅黑" text-anchor="middle" font-size="13px" width="236px" fill="#323232" font-weight="400" align="middle" lineHeight="125%" anchor="middle" family="微软雅黑" size="13px" weight="400" font-style="" opacity="1" y="5.375" transform="rotate(0)"><tspan id="SvgjsTspan1694" dy="16" x="128"><tspan id="SvgjsTspan1695" style="text-decoration:;">scene.primitves.update( frameState)</tspan></tspan></text></g></g><g id="SvgjsG1696" transform="translate(221.5,412.3046875)"><path id="SvgjsPath1697" d="M 0 0L 313.375 0L 313.375 33.25L 0 33.25Z" stroke="rgba(50,50,50,1)" stroke-width="2" fill-opacity="1" fill="#ffffff"></path><g id="SvgjsG1698"><text id="SvgjsText1699" font-family="微软雅黑" text-anchor="middle" font-size="13px" width="294px" fill="#323232" font-weight="400" align="middle" lineHeight="125%" anchor="middle" family="微软雅黑" size="13px" weight="400" font-style="" opacity="1" y="7" transform="rotate(0)"><tspan id="SvgjsTspan1700" dy="16" x="157"><tspan id="SvgjsTspan1701" style="text-decoration:;">function  updateAndRenderPrimitvies [in Scene]</tspan></tspan></text></g></g><g id="SvgjsG1702"><path id="SvgjsPath1703" d="M378.1875 446.5546875L378.1875 483.49972098214283L520.90625 483.49972098214283L520.90625 517.8447544642856" stroke="#323232" stroke-width="2" fill="none" marker-end="url(#SvgjsMarker1704)"></path></g><g id="SvgjsG1706" transform="translate(364.8125,522.859375)"><path id="SvgjsPath1707" d="M 0 0L 312.1875 0L 312.1875 30.46875L 0 30.46875Z" stroke="rgba(50,50,50,1)" stroke-width="2" fill-opacity="1" fill="#ffffff"></path><g id="SvgjsG1708"><text id="SvgjsText1709" font-family="微软雅黑" text-anchor="middle" font-size="13px" width="293px" fill="#323232" font-weight="400" align="middle" lineHeight="125%" anchor="middle" family="微软雅黑" size="13px" weight="400" font-style="" opacity="1" y="5.609375" transform="rotate(0)"><tspan id="SvgjsTspan1710" dy="16" x="156.5"><tspan id="SvgjsTspan1711" style="text-decoration:;">Scene.prototype.updateAndExecuteCommands</tspan></tspan></text></g></g><g id="SvgjsG1712" transform="translate(62,518.53125)"><path id="SvgjsPath1713" d="M 0 0L 268 0L 268 39.125L 0 39.125Z" stroke="rgba(50,50,50,1)" stroke-width="2" fill-opacity="1" fill="#ffffff"></path><g id="SvgjsG1714"><text id="SvgjsText1715" font-family="微软雅黑" text-anchor="middle" font-size="13px" width="248px" fill="#323232" font-weight="400" align="middle" lineHeight="125%" anchor="middle" family="微软雅黑" size="13px" weight="400" font-style="" opacity="1" y="1.9375" transform="rotate(0)"><tspan id="SvgjsTspan1716" dy="16" x="134"><tspan id="SvgjsTspan1717" style="text-decoration:;">function </tspan></tspan><tspan id="SvgjsTspan1718" dy="16" x="134"><tspan id="SvgjsTspan1719" style="text-decoration:;">execute2DViewportCommands   [in </tspan></tspan><tspan id="SvgjsTspan1720" dy="16" x="134"><tspan id="SvgjsTspan1721" style="text-decoration:;">Sccene]</tspan></tspan></text></g></g><g id="SvgjsG1722"><path id="SvgjsPath1723" d="M520.90625 554.328125L520.90625 565.7131696428571L520.90625 565.7131696428571L520.90625 574.4982142857143" stroke="#323232" stroke-width="2" fill="none" marker-end="url(#SvgjsMarker1724)"></path></g><g id="SvgjsG1726" transform="translate(420.84375,578.65625)"><path id="SvgjsPath1727" d="M 0 0L 200.125 0L 200.125 31.25L 0 31.25Z" stroke="rgba(50,50,50,1)" stroke-width="2" fill-opacity="1" fill="#ff0000"></path><g id="SvgjsG1728"><text id="SvgjsText1729" font-family="微软雅黑" text-anchor="middle" font-size="13px" width="181px" fill="#323232" font-weight="400" align="middle" lineHeight="125%" anchor="middle" family="微软雅黑" size="13px" weight="400" font-style="" opacity="1" y="6" transform="rotate(0)"><tspan id="SvgjsTspan1730" dy="16" x="100.5"><tspan id="SvgjsTspan1731" style="text-decoration:;">function render [in Sccene]</tspan></tspan></text></g></g><g id="SvgjsG1732"><path id="SvgjsPath1733" d="M520.90625 610.90625L520.90625 627.90625L520.90625 627.90625L520.90625 642.30625" stroke="#323232" stroke-width="2" fill="none" marker-end="url(#SvgjsMarker1734)"></path></g><g id="SvgjsG1736" transform="translate(433.65625,645.90625)"><path id="SvgjsPath1737" d="M 0 0L 174.5 0L 174.5 37L 0 37Z" stroke="rgba(50,50,50,1)" stroke-width="2" fill-opacity="1" fill="#ff0000"></path><g id="SvgjsG1738"><text id="SvgjsText1739" font-family="微软雅黑" text-anchor="middle" font-size="13px" width="155px" fill="#323232" font-weight="400" align="middle" lineHeight="125%" anchor="middle" family="微软雅黑" size="13px" weight="400" font-style="" opacity="1" y="8.875" transform="rotate(0)"><tspan id="SvgjsTspan1740" dy="16" x="87.5"><tspan id="SvgjsTspan1741" style="text-decoration:;">Scene.prototype.render</tspan></tspan></text></g></g><g id="SvgjsG1742" transform="translate(670.25,609.90625)"><path id="SvgjsPath1743" d="M 0 0L 128.25 0L 128.25 37L 0 37Z" stroke="rgba(50,50,50,1)" stroke-width="2" fill-opacity="1" fill="#ffffff"></path><g id="SvgjsG1744"><text id="SvgjsText1745" font-family="微软雅黑" text-anchor="middle" font-size="13px" width="109px" fill="#323232" font-weight="400" align="middle" lineHeight="125%" anchor="middle" family="微软雅黑" size="13px" weight="400" font-style="" opacity="1" y="8.875" transform="rotate(0)"><tspan id="SvgjsTspan1746" dy="16" x="64.5"><tspan id="SvgjsTspan1747" style="text-decoration:;">CesiumWidget</tspan></tspan></text></g></g><g id="SvgjsG1748" transform="translate(670.25,670.90625)"><path id="SvgjsPath1749" d="M 0 0L 128.25 0L 128.25 37L 0 37Z" stroke="rgba(50,50,50,1)" stroke-width="2" fill-opacity="1" fill="#ffffff"></path><g id="SvgjsG1750"><text id="SvgjsText1751" font-family="微软雅黑" text-anchor="middle" font-size="13px" width="109px" fill="#323232" font-weight="400" align="middle" lineHeight="125%" anchor="middle" family="微软雅黑" size="13px" weight="400" font-style="" opacity="1" y="8.875" transform="rotate(0)"><tspan id="SvgjsTspan1752" dy="16" x="64.5"><tspan id="SvgjsTspan1753" style="text-decoration:;">Viewer</tspan></tspan></text></g></g><g id="SvgjsG1754" transform="translate(638.125,728.90625)"><path id="SvgjsPath1755" d="M 0 4Q 0 0 4 0L 188.5 0Q 192.5 0 192.5 4L 192.5 30Q 192.5 34 188.5 34L 4 34Q 0 34 0 30Z" stroke="rgba(50,50,50,1)" stroke-width="2" fill-opacity="1" fill="#ffffff"></path><g id="SvgjsG1756"><text id="SvgjsText1757" font-family="微软雅黑" text-anchor="middle" font-size="13px" width="173px" fill="#323232" font-weight="400" align="middle" lineHeight="125%" anchor="middle" family="微软雅黑" size="13px" weight="400" font-style="" opacity="1" y="7.375" transform="rotate(0)"><tspan id="SvgjsTspan1758" dy="16" x="96.5"><tspan id="SvgjsTspan1759" style="text-decoration:;">Viewer.prototype.render</tspan></tspan></text></g></g><g id="SvgjsG1760" transform="translate(846.03125,590.40625)"><path id="SvgjsPath1761" d="M 0 4Q 0 0 4 0L 220.734375 0Q 224.734375 0 224.734375 4L 224.734375 72Q 224.734375 76 220.734375 76L 4 76Q 0 76 0 72Z" stroke="rgba(50,50,50,1)" stroke-width="2" fill-opacity="1" fill="#ff0000"></path><g id="SvgjsG1762"><text id="SvgjsText1763" font-family="微软雅黑" text-anchor="middle" font-size="13px" width="205px" fill="#323232" font-weight="400" align="middle" lineHeight="125%" anchor="middle" family="微软雅黑" size="13px" weight="400" font-style="" opacity="1" y="20.375" transform="rotate(0)"><tspan id="SvgjsTspan1764" dy="16" x="112.5"><tspan id="SvgjsTspan1765" style="text-decoration:;">CesiumWidget.prototype.render</tspan></tspan><tspan id="SvgjsTspan1766" dy="16" x="112.5"><tspan id="SvgjsTspan1767" style="text-decoration:;">（本质上是执行Scene.render）</tspan></tspan></text></g></g><g id="SvgjsG1768"><path id="SvgjsPath1769" d="M831.625 745.90625L938.0767121010638 745.90625L938.0767121010638 667.8139423076923" stroke="#323232" stroke-width="2" fill="none" marker-end="url(#SvgjsMarker1770)"></path><rect id="SvgjsRect1772" width="39" height="16" x="904.3970098966857" y="737.90625" fill="#ffffff"></rect><text id="SvgjsText1773" font-family="微软雅黑" text-anchor="middle" font-size="13px" width="39px" fill="#323232" font-weight="400" align="top" lineHeight="16px" anchor="middle" family="微软雅黑" size="13px" weight="400" font-style="" opacity="1" y="736.28125" transform="rotate(0)"><tspan id="SvgjsTspan1774" dy="16" x="923.8970098966857"><tspan id="SvgjsTspan1775" style="text-decoration:;">本质上</tspan></tspan></text></g><g id="SvgjsG1776" transform="translate(1118.296875,609.40625)"><path id="SvgjsPath1777" d="M 0 4Q 0 0 4 0L 251 0Q 255 0 255 4L 255 34Q 255 38 251 38L 4 38Q 0 38 0 34Z" stroke="rgba(50,50,50,1)" stroke-width="2" fill-opacity="1" fill="#ffffff"></path><g id="SvgjsG1778"><text id="SvgjsText1779" font-family="微软雅黑" text-anchor="middle" font-size="13px" width="235px" fill="#323232" font-weight="400" align="middle" lineHeight="125%" anchor="middle" family="微软雅黑" size="13px" weight="400" font-style="" opacity="1" y="9.375" transform="rotate(0)"><tspan id="SvgjsTspan1780" dy="16" x="127.5"><tspan id="SvgjsTspan1781" style="text-decoration:;">function startRenderLoop(widget)</tspan></tspan></text></g></g><g id="SvgjsG1782" transform="translate(1092.2265625,341.25)"><path id="SvgjsPath1783" d="M 0 4Q 0 0 4 0L 303.140625 0Q 307.140625 0 307.140625 4L 307.140625 179.75Q 307.140625 183.75 303.140625 183.75L 4 183.75Q 0 183.75 0 179.75Z" stroke="rgba(50,50,50,1)" stroke-width="2" fill-opacity="1" fill="#ffffff"></path><g id="SvgjsG1784"><text id="SvgjsText1785" font-family="微软雅黑" text-anchor="start" font-size="13px" width="288px" fill="#323232" font-weight="400" align="middle" lineHeight="125%" anchor="start" family="微软雅黑" size="13px" weight="400" font-style="" opacity="1" y="2.25" transform="rotate(0)"><tspan id="SvgjsTspan1786" dy="16" x="10"><tspan id="SvgjsTspan1787" style="text-decoration:;font-weight: bold;">useDefaultRenderLoop:</tspan><tspan id="SvgjsTspan1788" style="text-decoration:;">{</tspan></tspan><tspan id="SvgjsTspan1789" dy="16" x="10"><tspan id="SvgjsTspan1790" style="text-decoration:;">  get: function(){},</tspan></tspan><tspan id="SvgjsTspan1791" dy="16" x="10"><tspan id="SvgjsTspan1792" style="text-decoration:;">  set: function(value){</tspan></tspan><tspan id="SvgjsTspan1793" dy="16" x="10"><tspan id="SvgjsTspan1794" style="text-decoration:;">      if(this._useDefaultRenderLoop !== value){</tspan></tspan><tspan id="SvgjsTspan1795" dy="16" x="10"><tspan id="SvgjsTspan1796" style="text-decoration:;">         this._useDefaultRenderLoop = value;</tspan></tspan><tspan id="SvgjsTspan1797" dy="16" x="10"><tspan id="SvgjsTspan1798" style="text-decoration:;">         if( value &amp;&amp; !this._renderLoopRunning){</tspan></tspan><tspan id="SvgjsTspan1799" dy="16" x="10"><tspan id="SvgjsTspan1800" style="text-decoration:;">             </tspan><tspan id="SvgjsTspan1801" style="text-decoration:;font-weight: bold;">startRenderLoop</tspan><tspan id="SvgjsTspan1802" style="text-decoration:;">(this);</tspan></tspan><tspan id="SvgjsTspan1803" dy="16" x="10"><tspan id="SvgjsTspan1804" style="text-decoration:;">         }</tspan></tspan><tspan id="SvgjsTspan1805" dy="16" x="10"><tspan id="SvgjsTspan1806" style="text-decoration:;">      }</tspan></tspan><tspan id="SvgjsTspan1807" dy="16" x="10"><tspan id="SvgjsTspan1808" style="text-decoration:;">  }</tspan></tspan><tspan id="SvgjsTspan1809" dy="16" x="10"><tspan id="SvgjsTspan1810" style="text-decoration:;">}</tspan></tspan></text></g></g><g id="SvgjsG1811" transform="translate(1161.21875,233.71875)"><path id="SvgjsPath1812" d="M 0 4Q 0 0 4 0L 165.15625 0Q 169.15625 0 169.15625 4L 169.15625 39.4375Q 169.15625 43.4375 165.15625 43.4375L 4 43.4375Q 0 43.4375 0 39.4375Z" stroke="rgba(50,50,50,1)" stroke-width="2" fill-opacity="1" fill="#ffffff"></path><g id="SvgjsG1813"><text id="SvgjsText1814" font-family="微软雅黑" text-anchor="middle" font-size="13px" width="150px" fill="#323232" font-weight="400" align="middle" lineHeight="125%" anchor="middle" family="微软雅黑" size="13px" weight="400" font-style="" opacity="1" y="12.09375" transform="rotate(0)"><tspan id="SvgjsTspan1815" dy="16" x="85"><tspan id="SvgjsTspan1816" style="text-decoration:;">new CesiumWidget(...)</tspan></tspan></text></g></g><g id="SvgjsG1817" transform="translate(1111.796875,115)"><path id="SvgjsPath1818" d="M 14 0L 254 0C 272.6666666666667 0 272.6666666666667 42 254 42L 14 42C -4.666666666666667 42 -4.666666666666667 0 14 0Z" stroke="rgba(50,50,50,1)" stroke-width="2" fill-opacity="1" fill="#cfcfcf"></path><g id="SvgjsG1819"><text id="SvgjsText1820" font-family="Arial" text-anchor="middle" font-size="13px" width="248px" fill="#323232" font-weight="400" align="middle" lineHeight="125%" anchor="middle" family="Arial" size="13px" weight="400" font-style="" opacity="1" y="3.375" transform="rotate(0)"><tspan id="SvgjsTspan1821" dy="16" x="134"><tspan id="SvgjsTspan1822" style="text-decoration:;">初始化 ：  </tspan></tspan><tspan id="SvgjsTspan1823" dy="16" x="134"><tspan id="SvgjsTspan1824" style="text-decoration:;">var viewer = new Cesium.Viewer();</tspan></tspan></text></g></g><g id="SvgjsG1825"><path id="SvgjsPath1826" d="M1245.796875 278.15625L1245.796875 309.203125L1245.796875 309.203125L1245.796875 337.65" stroke="#323232" stroke-width="2" fill="none" marker-end="url(#SvgjsMarker1827)"></path><rect id="SvgjsRect1829" width="209" height="16" x="1141.296875" y="299.903125" fill="#ffffff"></rect><text id="SvgjsText1830" font-family="微软雅黑" text-anchor="middle" font-size="13px" width="209px" fill="#323232" font-weight="400" align="top" lineHeight="16px" anchor="middle" family="微软雅黑" size="13px" weight="400" font-style="" opacity="1" y="298.278125" transform="rotate(0)"><tspan id="SvgjsTspan1831" dy="16" x="1245.796875"><tspan id="SvgjsTspan1832" style="text-decoration:;">CesiumWidget 构造函数里进行赋值</tspan></tspan></text></g><g id="SvgjsG1833" transform="translate(317.1875,94.75)"><path id="SvgjsPath1834" d="M 0 0L 122 0L 122 72.25L 0 72.25Z" stroke="rgba(50,50,50,1)" stroke-width="2" fill-opacity="1" fill="#ffffff"></path><g id="SvgjsG1835"><text id="SvgjsText1836" font-family="微软雅黑" text-anchor="start" font-size="13px" width="102px" fill="#323232" font-weight="400" align="middle" lineHeight="125%" anchor="start" family="微软雅黑" size="13px" weight="400" font-style="" opacity="1" y="2.5" transform="rotate(0)"><tspan id="SvgjsTspan1837" dy="16" x="10"><tspan id="SvgjsTspan1838" style="text-decoration:;"> {</tspan></tspan><tspan id="SvgjsTspan1839" dy="16" x="10"><tspan id="SvgjsTspan1840" style="text-decoration:;">   geometry:~,</tspan></tspan><tspan id="SvgjsTspan1841" dy="16" x="10"><tspan id="SvgjsTspan1842" style="text-decoration:;">   appearance:~</tspan></tspan><tspan id="SvgjsTspan1843" dy="16" x="10"><tspan id="SvgjsTspan1844" style="text-decoration:;"> }</tspan></tspan></text></g></g><g id="SvgjsG1845"><path id="SvgjsPath1846" d="M378.1875 70.359375L378.1875 82.0546875L378.1875 82.0546875L378.1875 91.15" stroke="#323232" stroke-width="2" fill="none" marker-end="url(#SvgjsMarker1847)"></path></g><g id="SvgjsG1849"><path id="SvgjsPath1850" d="M378.1875 168L378.1875 184.8203125L378.1875 184.8203125L378.1875 199.040625" stroke="#323232" stroke-width="2" fill="none" marker-end="url(#SvgjsMarker1851)"></path><rect id="SvgjsRect1853" width="26" height="16" x="365.1875" y="175.5203125" fill="#ffffff"></rect><text id="SvgjsText1854" font-family="微软雅黑" text-anchor="middle" font-size="13px" width="26px" fill="#323232" font-weight="400" align="top" lineHeight="16px" anchor="middle" family="微软雅黑" size="13px" weight="400" font-style="" opacity="1" y="173.8953125" transform="rotate(0)"><tspan id="SvgjsTspan1855" dy="16" x="378.1875"><tspan id="SvgjsTspan1856" style="text-decoration:;">传入</tspan></tspan></text></g><g id="SvgjsG1857"><path id="SvgjsPath1858" d="M378.1875 247.640625L378.1875 260.66796875L378.1875 260.66796875L378.1875 271.0953125" stroke="#323232" stroke-width="2" fill="none" marker-end="url(#SvgjsMarker1859)"></path></g><g id="SvgjsG1861"><path id="SvgjsPath1862" d="M378.1875 446.5546875L378.1875 483.04296875L196 483.04296875L196 514.93125" stroke="#323232" stroke-width="2" fill="none" marker-end="url(#SvgjsMarker1863)"></path></g><g id="SvgjsG1865"><path id="SvgjsPath1866" d="M331 538.09375L347.40625 538.09375L347.40625 538.09375L361.2125 538.09375" stroke="#323232" stroke-width="2" fill="none" marker-end="url(#SvgjsMarker1867)"></path></g><g id="SvgjsG1869"><path id="SvgjsPath1870" d="M1245.796875 158L1245.796875 168.625L1245.796875 168.625L1245.796875 176.65" stroke="#323232" stroke-width="2" fill="none" marker-end="url(#SvgjsMarker1871)"></path></g><g id="SvgjsG1873"><path id="SvgjsPath1874" d="M609.15625 664.40625L639.203125 664.40625L639.203125 628.40625L666.65 628.40625" stroke="#323232" stroke-width="2" fill="none" marker-end="url(#SvgjsMarker1875)"></path></g><g id="SvgjsG1877"><path id="SvgjsPath1878" d="M609.15625 664.40625L639.203125 664.40625L639.203125 689.40625L666.65 689.40625" stroke="#323232" stroke-width="2" fill="none" marker-end="url(#SvgjsMarker1879)"></path></g><g id="SvgjsG1881"><path id="SvgjsPath1882" d="M799.5 628.40625L822.265625 628.40625L822.265625 628.40625L842.43125 628.40625" stroke="#323232" stroke-width="2" fill="none" marker-end="url(#SvgjsMarker1883)"></path></g><g id="SvgjsG1885"><path id="SvgjsPath1886" d="M1117.296875 628.40625L1094.53125 628.40625L1094.53125 628.40625L1074.365625 628.40625" stroke="#323232" stroke-width="2" fill="none" marker-end="url(#SvgjsMarker1887)"></path></g><g id="SvgjsG1889"><path id="SvgjsPath1890" d="M1245.796875 526L1245.796875 567.203125L1245.796875 567.203125L1245.796875 605.80625" stroke="#323232" stroke-width="2" fill="none" marker-end="url(#SvgjsMarker1891)"></path></g><g id="SvgjsG1893"><path id="SvgjsPath1894" d="M734.375 708.90625L734.375 718.40625L734.375 718.40625L734.375 725.30625" stroke="#323232" stroke-width="2" fill="none" marker-end="url(#SvgjsMarker1895)"></path></g><g id="SvgjsG1897" transform="translate(1171.21875,180.25)"><path id="SvgjsPath1898" d="M 0 4Q 0 0 4 0L 145.15625 0Q 149.15625 0 149.15625 4L 149.15625 31.75Q 149.15625 35.75 145.15625 35.75L 4 35.75Q 0 35.75 0 31.75Z" stroke="rgba(50,50,50,1)" stroke-width="2" fill-opacity="1" fill="#ffffff"></path><g id="SvgjsG1899"><text id="SvgjsText1900" font-family="微软雅黑" text-anchor="middle" font-size="13px" width="130px" fill="#323232" font-weight="400" align="middle" lineHeight="125%" anchor="middle" family="微软雅黑" size="13px" weight="400" font-style="" opacity="1" y="8.25" transform="rotate(0)"><tspan id="SvgjsTspan1901" dy="16" x="75"><tspan id="SvgjsTspan1902" style="text-decoration:;">Viewer构造函数内</tspan></tspan></text></g></g><g id="SvgjsG1903"><path id="SvgjsPath1904" d="M1245.796875 217L1245.796875 224.859375L1245.796875 224.859375L1245.796875 230.11875" stroke="#323232" stroke-width="2" fill="none" marker-end="url(#SvgjsMarker1905)"></path></g><g id="SvgjsG1907"><path id="SvgjsPath1908" d="M378.1875 386.25L378.1875 398.77734375L378.1875 398.77734375L378.1875 408.7046875" stroke="#323232" stroke-width="2" fill="none" marker-end="url(#SvgjsMarker1909)"></path></g><g id="SvgjsG1911"><path id="SvgjsPath1912" d="M621.96875 594.28125L728.96875 594.28125L728.96875 370.25L509.6625 370.25" stroke="#323232" stroke-width="2" fill="none" marker-end="url(#SvgjsMarker1913)"></path><rect id="SvgjsRect1915" width="286" height="32" x="585.96875" y="410.1125" fill="#ffffff"></rect><text id="SvgjsText1916" font-family="微软雅黑" text-anchor="middle" font-size="13px" width="286px" fill="#323232" font-weight="400" align="top" lineHeight="16px" anchor="middle" family="微软雅黑" size="13px" weight="400" font-style="" opacity="1" y="408.4875" transform="rotate(0)"><tspan id="SvgjsTspan1917" dy="16" x="728.96875"><tspan id="SvgjsTspan1918" style="text-decoration:;">scene.primitves.update 函数经由几个中间函数，</tspan></tspan><tspan id="SvgjsTspan1919" dy="16" x="728.96875"><tspan id="SvgjsTspan1920" style="text-decoration:;">最终在 render 函数中执行</tspan></tspan></text></g><g id="SvgjsG1921" transform="translate(1412.828125,584.40625)"><path id="SvgjsPath1922" d="M 0 35L 106.642578125 0L 213.28515625 35L 106.642578125 70Z" stroke="rgba(50,50,50,1)" stroke-width="2" fill-opacity="1" fill="#ffffff"></path><g id="SvgjsG1923"><text id="SvgjsText1924" font-family="微软雅黑" text-anchor="middle" font-size="13px" width="194px" fill="#323232" font-weight="400" align="middle" lineHeight="125%" anchor="middle" family="微软雅黑" size="13px" weight="400" font-style="" opacity="1" y="25.725" transform="rotate(0)"><tspan id="SvgjsTspan1925" dy="16" x="107"><tspan id="SvgjsTspan1926" style="text-decoration:;">ShouldRender == true</tspan></tspan></text></g></g><g id="SvgjsG1927" transform="translate(1572.470703125,705.3749999999999)"><path id="SvgjsPath1928" d="M 0 35C 0 -11.666666666666666 70 -11.666666666666666 70 35C 70 81.66666666666667 0 81.66666666666667 0 35Z" stroke="rgba(50,50,50,1)" stroke-width="2" fill-opacity="1" fill="#ffffff"></path><g id="SvgjsG1929"><text id="SvgjsText1930" font-family="微软雅黑" text-anchor="middle" font-size="13px" width="50px" fill="#323232" font-weight="400" align="middle" lineHeight="125%" anchor="middle" family="微软雅黑" size="13px" weight="400" font-style="" opacity="1" y="25.375" transform="rotate(0)"><tspan id="SvgjsTspan1931" dy="16" x="35"><tspan id="SvgjsTspan1932" style="text-decoration:;">Update</tspan></tspan></text></g></g><g id="SvgjsG1933" transform="translate(1293.3671875,717.8437499999998)"><path id="SvgjsPath1934" d="M 0 4Q 0 0 4 0L 195.090909090909 0Q 199.090909090909 0 199.090909090909 4L 199.090909090909 41.06250000000023Q 199.090909090909 45.06250000000023 195.090909090909 45.06250000000023L 4 45.06250000000023Q 0 45.06250000000023 0 41.06250000000023Z" stroke="rgba(50,50,50,1)" stroke-width="2" fill-opacity="1" fill="#ffffff"></path><g id="SvgjsG1935"><text id="SvgjsText1936" font-family="微软雅黑" text-anchor="middle" font-size="13px" width="180px" fill="#323232" font-weight="400" align="middle" lineHeight="125%" anchor="middle" family="微软雅黑" size="13px" weight="400" font-style="" opacity="1" y="4.906250000000114" transform="rotate(0)"><tspan id="SvgjsTspan1937" dy="16" x="100"><tspan id="SvgjsTspan1938" style="text-decoration:;">每帧执行一次 render</tspan></tspan><tspan id="SvgjsTspan1939" dy="16" x="100"><tspan id="SvgjsTspan1940" style="text-decoration:;">By requestAnimationFrame</tspan></tspan></text></g></g><g id="SvgjsG1941"><path id="SvgjsPath1942" d="M1374 618L1392.9140625 618L1392.9140625 617.6731770833331L1409.228125 617.6731770833331" stroke="#323232" stroke-width="2" fill="none" marker-end="url(#SvgjsMarker1943)"></path></g><g id="SvgjsG1945"><path id="SvgjsPath1946" d="M1571.470703125 740.3749999999999L1532.4643998579545 740.3749999999999L1532.4643998579545 740.3749999999999L1496.058096590909 740.3749999999999" stroke="#323232" stroke-width="2" fill="none" marker-end="url(#SvgjsMarker1947)"></path></g><g id="SvgjsG1949"><path id="SvgjsPath1950" d="M1392.9126420454545 716.8437499999998L1392.9126420454545 639.6579798566743L1375.660307379214 639.6579798566743" stroke="#323232" stroke-width="2" fill="none" marker-end="url(#SvgjsMarker1951)"></path></g><g id="SvgjsG1953"><path id="SvgjsPath1954" d="M1627.11328125 619.40625L1656.11328125 619.40625L1656.11328125 679.890625L1607.470703125 679.890625L1607.470703125 701.7749999999999" stroke="#323232" stroke-width="2" fill="none" marker-end="url(#SvgjsMarker1955)"></path><rect id="SvgjsRect1957" width="25" height="16" x="1643.61328125" y="662.4119140624999" fill="#ffffff"></rect><text id="SvgjsText1958" font-family="微软雅黑" text-anchor="middle" font-size="13px" width="25px" fill="#323232" font-weight="400" align="top" lineHeight="16px" anchor="middle" family="微软雅黑" size="13px" weight="400" font-style="" opacity="1" y="660.7869140624999" transform="rotate(0)"><tspan id="SvgjsTspan1959" dy="16" x="1656.11328125"><tspan id="SvgjsTspan1960" style="text-decoration:;">YES</tspan></tspan></text></g><g id="SvgjsG1961"><path id="SvgjsPath1962" d="M1519.470703125 655.40625L1519.470703125 696.703125L1519.470703125 696.703125L1519.470703125 739" stroke="#323232" stroke-width="2" fill="none" marker-end="url(#SvgjsMarker1963)"></path><rect id="SvgjsRect1965" width="19" height="16" x="1509.970703125" y="689.203125" fill="#ffffff"></rect><text id="SvgjsText1966" font-family="微软雅黑" text-anchor="middle" font-size="13px" width="19px" fill="#323232" font-weight="400" align="top" lineHeight="16px" anchor="middle" family="微软雅黑" size="13px" weight="400" font-style="" opacity="1" y="687.578125" transform="rotate(0)"><tspan id="SvgjsTspan1967" dy="16" x="1519.470703125"><tspan id="SvgjsTspan1968" style="text-decoration:;">NO</tspan></tspan></text></g></svg>