<?xml version="1.0" standalone="no"?>
<!DOCTYPE svg PUBLIC "-//W3C//DTD SVG 20010904//EN"
 "http://www.w3.org/TR/2001/REC-SVG-20010904/DTD/svg10.dtd">
<svg version="1.0" xmlns="http://www.w3.org/2000/svg"
 width="1280.000000pt" height="1280.000000pt" viewBox="0 0 1280.000000 1280.000000"
 preserveAspectRatio="xMidYMid meet">
<g transform="translate(0.000000,1280.000000) scale(0.100000,-0.100000)"
fill="#000000" stroke="none">
<path d="M11430 11543 c-25 -2 -115 -10 -200 -19 -1715 -174 -3091 -1198
-3950 -2939 -241 -488 -454 -1047 -595 -1564 -60 -217 -76 -263 -90 -250 -5 5
-83 512 -127 824 -30 209 -32 751 -5 953 10 74 16 136 14 138 -8 8 -56 -263
-73 -406 -10 -87 -14 -193 -12 -300 l3 -165 -43 -3 c-36 -3 -44 0 -51 20 l-10
23 0 -25 c-1 -14 -17 -48 -37 -75 -81 -112 -96 -201 -60 -367 24 -114 21 -150
-34 -383 -27 -117 -50 -215 -50 -219 0 -3 -6 -6 -14 -6 -10 0 -21 29 -36 93
-34 146 -107 396 -167 571 -199 580 -580 1364 -900 1851 -535 814 -1204 1426
-1968 1800 -583 285 -1178 427 -1857 442 l-258 6 0 -79 c0 -122 28 -522 55
-791 185 -1820 738 -3362 1545 -4309 126 -146 326 -343 457 -449 248 -200 575
-388 838 -483 234 -85 508 -139 750 -148 177 -6 230 -13 218 -25 -6 -6 -102
-34 -215 -63 -267 -70 -410 -133 -628 -279 -601 -403 -929 -1043 -1119 -2182
-43 -261 -60 -419 -70 -642 -9 -222 -3 -355 33 -788 22 -265 80 -742 92 -754
17 -17 397 157 575 264 858 518 1607 1529 2184 2950 116 285 308 854 415 1230
60 212 71 245 78 245 4 0 7 -159 7 -352 0 -371 6 -464 51 -758 33 -211 62
-345 130 -600 72 -267 65 -246 74 -229 9 17 76 403 125 726 41 270 70 658 70
936 0 103 3 187 6 187 11 0 25 -43 103 -311 210 -712 408 -1221 683 -1749 578
-1109 1141 -1763 1942 -2257 137 -85 529 -288 538 -280 2 3 9 65 14 139 5 73
18 234 29 358 37 419 40 461 50 677 11 244 2 482 -29 730 -11 87 -29 237 -41
333 -62 513 -269 1106 -521 1491 -239 366 -519 608 -951 825 -160 80 -228 104
-421 148 -50 12 -19 23 80 30 168 12 474 56 573 82 434 117 734 259 1015 483
657 523 1146 1263 1514 2288 173 484 285 952 476 1988 78 422 127 847 150
1303 l6 122 -158 -2 c-87 -1 -178 -3 -203 -5z m-2 -532 c6 -86 -50 -487 -108
-766 -159 -766 -415 -1394 -717 -1757 -172 -206 -385 -321 -623 -335 -416 -25
-775 298 -882 792 -19 89 -16 322 6 425 83 400 332 803 671 1086 214 178 610
384 903 470 171 50 647 136 722 131 22 -2 25 -7 28 -46z m-9826 9 c441 -65
885 -248 1228 -506 267 -201 470 -446 610 -736 208 -430 226 -818 55 -1158
-51 -102 -87 -153 -164 -234 -162 -169 -354 -250 -591 -251 -143 0 -232 21
-349 80 -479 241 -898 1204 -1075 2470 -31 221 -41 328 -32 351 6 15 17 16 99
9 50 -4 149 -15 219 -25z m7298 -1024 c57 -118 86 -305 77 -490 -27 -526 -233
-840 -758 -1153 -74 -44 -210 -125 -304 -181 -277 -164 -450 -295 -603 -457
-120 -127 -175 -206 -260 -372 -42 -84 -81 -151 -87 -150 -19 7 -16 155 5 275
48 269 163 642 199 642 5 0 19 -27 31 -60 13 -34 24 -59 26 -57 2 2 17 64 34
138 44 204 108 366 200 509 55 85 128 170 146 170 18 0 18 1 -10 -110 -25 -98
-42 -210 -33 -210 3 0 34 58 70 128 140 278 294 492 406 564 47 29 87 38 78
16 -54 -123 -100 -289 -84 -304 3 -3 13 9 23 28 32 63 88 131 152 184 74 61
260 160 274 146 6 -6 -6 -47 -32 -107 -23 -53 -39 -99 -37 -101 2 -2 32 28 65
68 34 40 96 111 137 158 181 203 245 370 245 641 0 71 4 129 9 129 5 0 19 -20
31 -44z m-5051 -351 c20 -76 102 -241 166 -330 59 -83 202 -251 250 -295 l28
-25 -7 34 c-3 18 -25 76 -47 128 -23 51 -39 97 -35 100 10 10 57 -10 145 -59
95 -54 234 -189 280 -273 l32 -60 -5 65 c-3 36 -17 103 -31 150 -48 154 -46
161 25 109 159 -115 332 -366 468 -679 10 -24 11 -24 11 10 1 19 -10 81 -24
138 -14 57 -25 110 -25 118 0 73 172 -146 260 -331 21 -44 51 -123 68 -175 26
-85 35 -127 57 -264 8 -46 17 -39 40 32 9 28 22 52 29 52 12 0 131 -362 165
-505 33 -135 59 -364 46 -404 -9 -30 -21 -19 -41 42 -54 164 -162 324 -330
487 -136 132 -283 242 -539 405 -422 268 -489 312 -593 390 -319 238 -476 503
-514 866 -19 176 20 469 79 596 l17 38 7 -155 c3 -85 11 -177 18 -205z m626
-1620 c367 -58 709 -260 958 -568 111 -137 180 -245 266 -418 91 -183 148
-336 202 -547 42 -164 50 -228 25 -202 -8 8 -52 97 -99 197 -47 100 -112 222
-146 270 -241 351 -534 523 -821 483 -144 -20 -202 -47 -416 -194 -104 -71
-109 -69 -108 47 1 67 8 102 38 191 21 59 35 110 33 112 -8 8 -122 -83 -178
-142 -106 -113 -185 -251 -237 -414 -32 -100 -62 -257 -62 -322 0 -52 -24 -61
-56 -22 -35 42 -71 118 -114 240 -41 119 -43 119 -60 -16 -29 -236 5 -458 99
-655 100 -209 258 -364 461 -452 41 -18 76 -39 78 -47 9 -43 -158 -32 -318 19
-205 66 -332 146 -481 303 -352 370 -447 876 -262 1405 85 244 207 417 393
556 123 91 208 129 341 152 64 10 134 26 155 34 45 17 160 13 309 -10z m4024
15 c211 -22 417 -98 562 -208 236 -179 394 -469 445 -814 50 -341 -71 -815
-277 -1087 -153 -202 -384 -331 -664 -371 -89 -12 -225 -13 -225 0 0 5 38 27
85 49 224 105 403 280 504 492 57 119 73 185 78 332 6 153 -23 427 -45 427 -4
0 -16 -33 -26 -72 -22 -85 -91 -273 -112 -305 -25 -40 -42 -28 -49 35 -37 320
-150 579 -332 758 -55 54 -153 127 -160 120 -2 -2 14 -83 37 -181 38 -169 47
-225 34 -225 -12 0 -54 26 -137 87 -228 166 -403 214 -601 163 -151 -38 -292
-127 -433 -271 -123 -127 -206 -248 -311 -456 -53 -106 -100 -193 -104 -193
-29 0 40 288 114 475 180 454 499 850 861 1070 100 60 366 151 497 170 122 17
138 17 259 5z m-6507 -230 c529 -260 899 -322 1174 -196 32 15 61 23 66 18 5
-5 -14 -56 -41 -114 -149 -314 -220 -674 -192 -969 14 -151 53 -318 105 -442
20 -48 36 -92 36 -97 0 -20 -37 -9 -107 33 -109 64 -207 151 -297 263 -131
165 -220 324 -439 790 -130 276 -169 343 -335 562 -148 196 -171 232 -148 232
8 0 88 -36 178 -80z m8898 71 c0 -4 -17 -28 -39 -52 -149 -170 -338 -491 -496
-844 -105 -234 -209 -435 -276 -528 -75 -105 -238 -265 -383 -375 -107 -81
-136 -95 -136 -68 0 8 23 76 51 153 68 183 86 259 100 412 27 285 -31 562
-192 914 -33 70 -59 133 -59 139 0 12 6 10 127 -36 122 -48 208 -59 341 -46
125 13 324 62 482 120 115 42 368 160 425 198 32 22 55 27 55 13z m-5840
-1003 c276 -85 564 -379 775 -793 97 -189 192 -452 171 -472 -4 -4 -51 39
-104 97 -202 222 -303 302 -441 353 -160 60 -251 56 -474 -19 -166 -56 -235
-67 -313 -53 -172 32 -284 173 -284 359 0 129 65 291 157 390 66 71 82 81 228
131 124 43 164 43 285 7z m2834 -48 c265 -68 409 -271 394 -559 -8 -146 -53
-236 -141 -284 -35 -18 -57 -22 -137 -21 -78 0 -122 7 -250 42 -85 22 -191 44
-235 47 -157 13 -377 -40 -521 -126 -86 -50 -206 -168 -243 -239 -57 -106 -65
-90 -25 46 125 434 372 810 648 989 80 52 130 72 236 95 30 7 62 16 70 21 26
15 124 10 204 -11z m-339 -962 c107 -21 191 -31 293 -35 107 -4 142 -9 142
-18 0 -21 -99 -102 -170 -139 -78 -41 -223 -88 -340 -111 -55 -11 -174 -20
-340 -25 -203 -6 -266 -12 -307 -26 -29 -10 -56 -14 -60 -10 -10 9 33 88 79
147 51 65 141 127 289 199 l124 61 70 -6 c39 -4 138 -20 220 -37z m-2083 18
c197 -38 347 -140 441 -297 41 -70 48 -105 20 -96 -10 4 -45 16 -78 29 -56 21
-76 22 -330 24 -295 1 -348 8 -467 62 -56 25 -254 143 -316 188 -35 25 -14 33
53 22 117 -19 325 6 441 55 69 29 133 33 236 13z m1763 -525 c460 -78 777
-249 949 -514 77 -118 175 -318 316 -647 214 -499 279 -612 448 -770 62 -57
108 -108 104 -112 -22 -22 -373 131 -533 233 -180 114 -356 255 -504 404 -81
82 -151 181 -295 420 -258 426 -473 707 -657 858 -39 31 -108 73 -160 97 -51
24 -93 47 -93 53 0 16 288 1 425 -22z m-1335 9 c0 -6 -8 -13 -17 -16 -267 -89
-505 -354 -928 -1033 -149 -239 -209 -317 -349 -457 -208 -207 -437 -360 -697
-468 -125 -51 -246 -89 -260 -81 -7 5 12 31 54 74 238 245 362 449 532 881
153 386 244 550 380 679 138 131 293 226 511 312 177 71 423 116 632 118 91 1
142 -3 142 -9z m1066 -153 c246 -182 429 -487 494 -826 22 -115 23 -90 -6
-521 -17 -253 -10 -444 20 -619 8 -47 13 -89 10 -93 -24 -38 -168 203 -254
423 -96 246 -128 394 -145 669 -27 444 -88 747 -202 998 -11 25 26 11 83 -31z
m-1136 23 c0 -6 -13 -36 -29 -68 -53 -106 -97 -260 -120 -422 -6 -41 -18 -186
-26 -322 -8 -136 -22 -286 -30 -335 -37 -210 -123 -484 -210 -668 -69 -144
-173 -292 -188 -268 -3 5 1 35 9 68 25 100 28 318 9 581 -21 283 -16 494 14
624 62 272 175 455 427 700 118 114 144 133 144 110z m1775 -962 c160 -186
339 -591 405 -918 24 -122 35 -209 60 -510 32 -384 53 -486 137 -663 31 -64
53 -120 50 -123 -18 -18 -223 157 -323 274 -164 191 -257 379 -321 647 l-28
120 4 310 c8 671 7 725 -13 795 -36 128 -32 138 29 68z m-2445 10 c0 -13 -14
-70 -31 -128 l-30 -105 11 -450 c12 -446 12 -452 -9 -564 -43 -221 -134 -453
-247 -622 -67 -102 -214 -251 -304 -310 -62 -41 -110 -61 -110 -45 0 2 15 36
34 77 76 164 113 325 146 629 66 622 112 810 276 1140 76 152 234 400 255 400
5 0 9 -10 9 -22z m3977 -1393 c29 -13 68 -36 88 -52 79 -62 179 -226 239 -391
103 -288 176 -800 176 -1238 0 -131 -2 -144 -18 -144 -27 0 -323 163 -462 254
-533 351 -753 769 -615 1169 34 99 80 172 160 253 58 58 90 81 183 127 128 64
150 66 249 22z m-5403 10 c298 -78 519 -421 476 -737 -19 -136 -73 -260 -180
-410 -74 -103 -241 -268 -364 -360 -154 -114 -556 -344 -583 -334 -16 7 -16
64 -3 361 20 418 57 665 142 925 75 232 217 448 355 540 53 34 75 36 157 15z"/>
<path d="M4905 10361 c-22 -10 -49 -28 -59 -40 -19 -21 -19 -21 6 -56 54 -77
176 -154 497 -315 244 -122 294 -155 393 -258 88 -94 150 -180 229 -320 72
-128 59 -86 -25 84 -130 261 -261 440 -479 651 -243 235 -425 317 -562 254z"/>
<path d="M7605 10361 c-101 -36 -213 -108 -353 -225 -241 -203 -419 -437 -544
-718 -26 -59 -48 -111 -48 -115 0 -4 20 28 43 72 128 239 257 384 452 511 117
75 163 96 330 149 176 56 231 81 292 138 59 54 73 83 66 136 -5 37 -11 45 -39
57 -46 19 -139 17 -199 -5z"/>
<path d="M6481 8714 c0 -11 3 -14 6 -6 3 7 2 16 -1 19 -3 4 -6 -2 -5 -13z"/>
<path d="M6221 8594 c0 -11 3 -14 6 -6 3 7 2 16 -1 19 -3 4 -6 -2 -5 -13z"/>
<path d="M6232 8550 c-1 -8 10 -94 23 -190 24 -183 32 -194 15 -20 -10 93 -38
245 -38 210z"/>
</g>
</svg>
